<svg xmlns="http://www.w3.org/2000/svg" viewBox="0 0 48 48" id="camera-small" aria-hidden="true" role="none" data-supported-dps="48x48" width="48" height="48">
  <path d="M46 8H30.52l-2.59-3.27a2.33 2.33 0 00-1.7-.73h-4.46c-.64 0-1.26.26-1.7.73L17 8H2a2.42 2.42 0 00-2 2v30a2.42 2.42 0 002 2h44a2.42 2.42 0 002-2V10a2.42 2.42 0 00-2-2z" fill="#56687a"/>
  <path fill="#788fa5" d="M0 10h48v30H0z"/>
  <path fill="#fdc2b1" d="M0 15h48v20H0z"/>
  <path d="M24 13c-6.63 0-12 5.37-12 12s5.37 12 12 12 12-5.37 12-12-5.37-12-12-12z" fill="#fff"/>
  <path d="M24 15c-5.52 0-10 4.48-10 10s4.48 10 10 10 10-4.48 10-10-4.48-10-10-10z" fill="#56687a"/>
  <path d="M24 19c-3.31 0-6 2.69-6 6s2.69 6 6 6 6-2.69 6-6-2.69-6-6-6z" fill="#23292f"/>
  <circle cx="24" cy="25" r="2" fill="#fff"/>
</svg>
